<svg width="98" height="95" viewBox="0 0 98 95" fill="none" xmlns="http://www.w3.org/2000/svg">
<path d="M93.1187 95.0008C91.868 95.0008 90.6185 94.5251 89.667 93.5677L4.48373 8.39154C2.57606 6.48268 2.57606 3.38987 4.48373 1.4822C6.3914 -0.425464 9.4842 -0.425464 11.3931 1.4822L96.5692 86.6595C98.4769 88.5672 98.4769 91.66 96.5692 93.5677C95.6118 94.5191 94.3623 95.0008 93.1187 95.0008Z" fill="#D0F5D1"/>
<path d="M4.88244 95.0008C3.63172 95.0008 2.38101 94.5251 1.43075 93.5677C-0.476917 91.66 -0.476917 88.5672 1.43075 86.6595L86.6081 1.4822C88.5158 -0.425464 91.6086 -0.425464 93.5162 1.4822C95.4239 3.38987 95.4239 6.48268 93.5162 8.39154L8.34008 93.5677C7.38267 94.5191 6.13196 95.0008 4.88244 95.0008V95.0008Z" fill="#D0F5D1"/>
</svg>
